<svg width="128" height="128" viewBox="0 0 128 128" xmlns="http://www.w3.org/2000/svg">
  <path
    fill="#0F2A2B"
    fill-rule="evenodd"
    d="
      M59.15 11.53
      Q64.00 8.00 68.85 11.53
      L112.41 43.17
      Q117.26 46.70 115.41 52.40
      L98.77 103.60
      Q96.92 109.30 90.92 109.30
      L37.08 109.30
      Q31.08 109.30 29.23 103.60
      L12.59 52.40
      Q10.74 46.70 15.59 43.17
      Z
      M60.76 36.35
      Q64.00 34.00 67.24 36.35
      L89.30 52.38
      Q92.53 54.73 91.30 58.53
      L82.87 84.47
      Q81.63 88.27 77.63 88.27
      L50.37 88.27
      Q46.37 88.27 45.13 84.47
      L36.70 58.53
      Q35.47 54.73 38.70 52.38
      Z
    "
  />
</svg>
