<svg width="100%" height="100%" overflow="visible" style="display: block;" viewBox="0 0 55.5733 36" fill="none" xmlns="http://www.w3.org/2000/svg">
<g id="Kelas Sekejap">
<path id="Vector" d="M51.4917 19.6274C52.8292 19.6274 53.8438 20.0655 54.5356 20.9418C55.2274 21.8181 55.5733 23.171 55.5733 25.0004V25.0465C55.5733 26.8759 55.2351 28.1903 54.5587 28.9898C53.8823 29.7738 52.8523 30.1658 51.4687 30.1658H50.0389V35.7694H47.7329V19.6274H51.4917ZM50.0389 28.1365H51.4687C52.6678 28.1365 53.2673 27.3679 53.2673 25.8305V24.078C53.2673 22.4484 52.6678 21.6336 51.4687 21.6336H50.0389V28.1365Z" fill="var(--fill-0, #372545)"/>
<path id="Vector_2" d="M44.7175 19.6274L47.1849 35.7694H44.8789L44.141 31.0882H41.6274L40.9126 35.7694H38.6066L41.097 19.6274H44.7175ZM43.8412 29.082L42.9649 23.3862H42.8035L41.9272 29.082H43.8412Z" fill="var(--fill-0, #372545)"/>
<path id="Vector_3" d="M38.3661 19.6274V31.8492C38.3661 33.2789 38.0048 34.332 37.2823 35.0084C36.5597 35.6695 35.622 36 34.469 36C33.316 36 32.3782 35.6695 31.6556 35.0084C30.9485 34.3474 30.5949 33.2943 30.5949 31.8492V28.8514H32.9009V32.0106C32.9009 32.7485 33.0623 33.2635 33.3851 33.5556C33.708 33.8477 34.0846 33.9938 34.5151 33.9938C34.9302 33.9938 35.2914 33.8477 35.5989 33.5556C35.9064 33.2635 36.0601 32.7485 36.0601 32.0106V19.6274H38.3661Z" fill="var(--fill-0, #372545)"/>
<path id="Vector_4" d="M26.6994 21.6336V26.3609H30.0431V28.3671H26.6994V33.7632H30.2737V35.7694H24.3934V19.6274H30.1584V21.6336H26.6994Z" fill="var(--fill-0, #372545)"/>
<path id="Vector_5" d="M18.058 26.6834H18.427L20.9866 19.6039H23.4541L20.3179 27.698L23.823 35.769H21.3556L18.427 28.7126H18.058V35.769H15.752V19.6039H18.058V26.6834Z" fill="var(--fill-0, #372545)"/>
<path id="Vector_6" d="M11.3966 21.6336V26.3609H14.7403V28.3671H11.3966V33.7632H14.9709V35.7694H9.09064V19.6274H14.8556V21.6336H11.3966Z" fill="var(--fill-0, #372545)"/>
<path id="Vector_7" d="M5.74195 25.5074V23.3858C5.74195 22.7555 5.58821 22.2713 5.28074 21.9331C4.98865 21.5795 4.57357 21.4027 4.0355 21.4027C3.49744 21.4027 3.08236 21.5795 2.79026 21.9331C2.49817 22.2713 2.35213 22.7555 2.35213 23.3858V24.2852C2.35213 24.5926 2.38287 24.8694 2.44436 25.1153C2.50586 25.3459 2.62116 25.5612 2.79026 25.761C2.95937 25.9455 3.18997 26.13 3.48206 26.3145C3.77416 26.4836 4.15081 26.6604 4.61201 26.8448L5.5344 27.1907C6.47218 27.5443 7.13323 28.044 7.51756 28.6896C7.9019 29.3199 8.09406 30.227 8.09406 31.4107V31.8489C8.09406 33.1556 7.73279 34.1779 7.01024 34.9158C6.30307 35.6384 5.3038 35.9997 4.01244 35.9997C2.72108 35.9997 1.72951 35.6384 1.03771 34.9158C0.345905 34.1933 5.28918e-06 33.171 5.28918e-06 31.8489V29.8888H2.306V32.0103C2.306 32.6406 2.45974 33.1325 2.7672 33.4861C3.07467 33.8243 3.49744 33.9934 4.0355 33.9934C4.58894 33.9934 5.0194 33.8243 5.32686 33.4861C5.63433 33.1325 5.78807 32.6406 5.78807 32.0103V31.0418C5.78807 30.7343 5.74963 30.4653 5.67276 30.2347C5.61127 29.9887 5.49597 29.7735 5.32686 29.589C5.17313 29.3891 4.95022 29.2046 4.65813 29.0355C4.38141 28.8664 4.02013 28.6896 3.5743 28.5052L2.55967 28.1362C1.65264 27.7826 1.00696 27.283 0.622625 26.6373C0.238292 25.9762 0.0461253 25.0615 0.0461253 23.8932V23.5473C0.0461253 22.2098 0.392025 21.1874 1.08383 20.4803C1.77563 19.7577 2.75183 19.3965 4.01244 19.3965C5.28843 19.3965 6.28001 19.7654 6.98718 20.5033C7.69436 21.2259 8.04794 22.2405 8.04794 23.5473V25.5074H5.74195Z" fill="var(--fill-0, #372545)"/>
<g id="Group 1">
<path id="Vector_8" d="M44.4671 6.1109V3.98938C44.4671 3.35907 44.3134 2.87481 44.0059 2.5366C43.7138 2.18301 43.2987 2.00622 42.7606 2.00622C42.2226 2.00622 41.8075 2.18301 41.5154 2.5366C41.2233 2.87481 41.0773 3.35907 41.0773 3.98938V4.88872C41.0773 5.19619 41.108 5.47291 41.1695 5.71888C41.231 5.94948 41.3463 6.16471 41.5154 6.36456C41.6845 6.54904 41.9151 6.73352 42.2072 6.918C42.4993 7.08711 42.8759 7.2639 43.3371 7.44838L44.2595 7.79428C45.1973 8.14787 45.8584 8.6475 46.2427 9.29318C46.627 9.92349 46.8192 10.8305 46.8192 12.0143V12.4524C46.8192 13.7591 46.4579 14.7815 45.7354 15.5194C45.0282 16.2419 44.0289 16.6032 42.7376 16.6032C41.4462 16.6032 40.4546 16.2419 39.7628 15.5194C39.071 14.7968 38.7251 13.7745 38.7251 12.4524V10.4923H41.0311V12.6138C41.0311 13.2441 41.1849 13.7361 41.4923 14.0897C41.7998 14.4279 42.2226 14.597 42.7606 14.597C43.3141 14.597 43.7445 14.4279 44.052 14.0897C44.3595 13.7361 44.5132 13.2441 44.5132 12.6138V11.6453C44.5132 11.3378 44.4748 11.0688 44.3979 10.8382C44.3364 10.5922 44.2211 10.377 44.052 10.1925C43.8983 9.99267 43.6754 9.80819 43.3833 9.63908C43.1065 9.46997 42.7453 9.29318 42.2994 9.1087L41.2848 8.73974C40.3778 8.38615 39.7321 7.88652 39.3478 7.24084C38.9634 6.57979 38.7713 5.66507 38.7713 4.4967V4.1508C38.7713 2.81332 39.1172 1.79099 39.809 1.08382C40.5008 0.361273 41.477 0 42.7376 0C44.0136 0 45.0051 0.36896 45.7123 1.10688C46.4195 1.82943 46.7731 2.84407 46.7731 4.1508V6.1109H44.4671Z" fill="var(--fill-0, #372545)"/>
<path id="Vector_9" d="M35.9575 0.230282L38.4249 16.3723H36.1189L35.381 11.6911H32.8674L32.1526 16.3723H29.8466L32.337 0.230282H35.9575ZM35.0812 9.68488L34.2049 3.98906H34.0435L33.1672 9.68488H35.0812Z" fill="var(--fill-0, #372545)"/>
<path id="Vector_10" d="M26.2906 0.230282V14.3661H29.7497V16.3723H23.9846V0.230282H26.2906Z" fill="var(--fill-0, #372545)"/>
<path id="Vector_11" d="M19.6293 2.2365V6.9638H22.973V8.97002H19.6293V14.3661H23.2036V16.3723H17.3233V0.230282H23.0883V2.2365H19.6293Z" fill="var(--fill-0, #372545)"/>
<path id="Vector_12" d="M10.9879 7.28675H11.3569L13.9166 0.20733H16.384L13.2478 8.30139L16.7529 16.3724H14.2855L11.3569 9.31603H10.9879V16.3724H8.68193V0.20733H10.9879V7.28675Z" fill="var(--fill-0, #372545)"/>
</g>
</g>
</svg>
